Piranha (2010) 1CD BRRip 720p Dual Audio[Hindi-English] by imkhan-=MTR=-

Check out MY latest Uploads:
 
http://thepiratebay.org/user/HDvideos/0/7

Stay updated with us....

Seed after downloading....

EnjoY with HDvideos..

Say thanks if u like my posts

Give ur valuable feedbacks

Quality Uploads from HDvideos

-=MT=-Uploader-=HDvideos=-

Recommended Player:VLC Player

Credits: imkhan

Check SaMpLe before downloading

Format                           : Matroska
File size                        : 600 MiB
Duration                         : 1h 19mn[end credit cut]
Overall bit rate                 : 1 060 Kbps
Movie name                       : Piranha 2010 BRRip 720p Dual Audio [Hin-Eng]
Encoded date                     : UTC 2011-08-12 12:24:30
Writing application              : mkvmerge v4.7.0 ('Just Like You Imagined') built on Apr 21 2011 01:13:14
Writing library                  : libebml v1.2.0 + libmatroska v1.1.0

Video
ID                               : 1
Format                           : AVC
Format/Info                      : Advanced Video Codec
Format profile                   : [email="High@L4.0"]High@L4.0[/email]
Format settings, CABAC           : Yes
Format settings, ReFrames        : 8 frames
Muxing mode                      : Container [email="profile=Unknown@4.0"]profile=Unknown@4.0[/email]
Codec ID                         : V_MPEG4/ISO/AVC
Duration                         : 1h 19mn
Bit rate                         : 847 Kbps
Nominal bit rate                 : 817 Kbps
Width                            : 1 280 pixels
Height                           : 536 pixels
Display aspect ratio             : 2.35:1
Frame rate                       : 25.000 fps
Resolution                       : 24 bits
Colorimetry                      : 4:2:0
Scan type                        : Progressive
Bits/(Pixel*Frame)               : 0.049
Stream size                      : 479 MiB (80%)
Writing library                  : x264 core 92 r1510 33d382a
Encoding settings                : cabac=1 / ref=8 / deblock=1:0:0 / analyse=0x3:0x133 / me=umh / subme=7 / psy=1 / psy_rd=1.00:0.10 / mixed_ref=1 / me_range=16 / chroma_me=1 / trellis=2 / 8x8dct=1 / cqm=0 / deadzone=21,11 / fast_pskip=0 / chroma_qp_offset=-3 / threads=3 / sliced_threads=0 / nr=0 / decimate=1 / interlaced=0 / constrained_intra=0 / bframes=3 / b_pyramid=2 / b_adapt=2 / b_bias=0 / direct=3 / wpredb=1 / wpredp=2 / keyint=250 / keyint_min=25 / scenecut=40 / intra_refresh=0 / rc_lookahead=50 / rc=2pass / mbtree=1 / bitrate=817 / ratetol=1.0 / qcomp=0.60 / qpmin=10 / qpmax=51 / qpstep=4 / cplxblur=20.0 / qblur=0.5 / ip_ratio=1.40 / aq=1:1.30
Language                         : Hindi

Audio #1
ID                               : 2
Format                           : MPEG Audio
Format version                   : Version 1
Format profile                   : Layer 3
Codec ID                         : A_MPEG/L3
Codec ID/Hint                    : MP3
Duration                         : 1h 19mn
Bit rate mode                    : Constant
Bit rate                         : 96.0 Kbps
Channel(s)                       : 2 channels
Sampling rate                    : 44.1 KHz
Resolution                       : 16 bits
Stream size                      : 54.3 MiB (9%)
Writing library                  : LAME3.98.2
Language                         : Hindi

Audio #2
ID                               : 3
Format                           : MPEG Audio
Format version                   : Version 1
Format profile                   : Layer 3
Codec ID                         : A_MPEG/L3
Codec ID/Hint                    : MP3
Duration                         : 1h 19mn
Bit rate mode                    : Constant
Bit rate                         : 96.0 Kbps
Channel(s)                       : 2 channels
Sampling rate                    : 44.1 KHz
Resolution                       : 16 bits
Stream size                      : 54.3 MiB (9%)
Writing library                  : LAME3.98.2